# xmcd CD database file
#
# Track frame offsets:
#	150
#	26737
#	38867
#	51215
#	65000
#	79827
#	93195
#	107782
#	120720
#	134597
#	147320
#	161022
#	173252
#	187447
#	200572
#
# Disc length: 2850 seconds
#
# Revision: 4
# Processed by: cddbd v1.5.2PL0 Copyright (c) Steve Scherf et al.
# Submitted via: CDex 1.50beta10
#
DISCID=dc0b200f
DTITLE=Dexter Gordon - Dexter Digs In
DYEAR=2003
DGENRE=Jazz
TTITLE0=Settin' The Pace (Parts I and II)
TTITLE1=So Easy
TTITLE2=Dexter's Riff
TTITLE3=Long Tall Dexter
TTITLE4=I Can't Escape From You
TTITLE5=Dexter Digs In
TTITLE6=Dexter Rides Again
TTITLE7=Dexter's Mood
TTITLE8=Index
TTITLE9=Dextrose
TTITLE10=Dextivity
TTITLE11=Dexter's Minor Mad
TTITLE12=Dexter's Cuttin' Out
TTITLE13=Dexter's Deck
TTITLE14=Blow Mr. Dexter
EXTD=YEAR: 2003
EXTT0=
EXTT1=
EXTT2=
EXTT3=
EXTT4=
EXTT5=
EXTT6=
EXTT7=
EXTT8=
EXTT9=
EXTT10=
EXTT11=
EXTT12=
EXTT13=
EXTT14=
PLAYORDER=
